<?xml version="1.0" encoding="utf-8"?>
<!-- Generator: Adobe Illustrator 15.0.0, SVG Export Plug-In  -->
<!DOCTYPE svg PUBLIC "-//W3C//DTD SVG 1.1//EN" "http://www.w3.org/Graphics/SVG/1.1/DTD/svg11.dtd" [
	<!ENTITY ns_flows "http://ns.adobe.com/Flows/1.0/">
]>
<svg version="1.1"
	 xmlns="http://www.w3.org/2000/svg" xmlns:xlink="http://www.w3.org/1999/xlink" xmlns:a="http://ns.adobe.com/AdobeSVGViewerExtensions/3.0/"
	 x="0px" y="0px" width="62px" height="71px" viewBox="0 0 62 71" overflow="visible" enable-background="new 0 0 62 71"
	 xml:space="preserve">
<defs>
</defs>
<path id="Android_1_" fill="#FFFFFF" d="M56.9,21.9c-2.4,0-4.4,2-4.4,4.4v17.5c0,2.4,2,4.4,4.4,4.4s4.3-2,4.3-4.4V26.3
	C61.2,23.8,59.3,21.9,56.9,21.9 M4.3,21.9c-2.4,0-4.3,2-4.3,4.4v17.5c0,2.4,1.9,4.4,4.3,4.4c2.4,0,4.4-2,4.4-4.4V26.3
	C8.7,23.8,6.8,21.9,4.3,21.9 M10.9,50.3c0,3.6,2.9,6.6,6.5,6.6h2.2v8.8c0,2.4,2,4.4,4.3,4.4c2.4,0,4.4-2,4.4-4.4v-8.8h4.4v8.8
	c0,2.4,2,4.4,4.4,4.4c2.4,0,4.4-2,4.4-4.4v-8.8h2.2c3.6,0,6.6-2.9,6.6-6.6V26.3H10.9V50.3z M38.7,6.1l2.8-5.3c0.1-0.3,0-0.6-0.2-0.8
	c-0.3-0.1-0.6,0-0.7,0.2l-2.8,5.4c-2.2-0.9-4.6-1.3-7.1-1.3c-2.5,0-4.9,0.5-7.1,1.3l-2.8-5.4c-0.1-0.3-0.5-0.4-0.7-0.2
	c-0.2,0.1-0.3,0.5-0.2,0.8l2.8,5.3C16.3,8.9,11.8,14.8,11,21.9h39.2C49.4,14.8,44.9,8.9,38.7,6.1 M21.9,18.5c-1.7,0-3.2-1.4-3.2-3.2
	c0-1.8,1.4-3.2,3.2-3.2c1.7,0,3.2,1.4,3.2,3.2C25,17.1,23.6,18.5,21.9,18.5 M39.4,18.5c-1.7,0-3.2-1.4-3.2-3.2
	c0-1.8,1.5-3.2,3.2-3.2c1.7,0,3.2,1.4,3.2,3.2C42.5,17.1,41.1,18.5,39.4,18.5"/>
</svg>
