<?xml version="1.0" encoding="utf-8"?>
<!-- Generator: Adobe Illustrator 15.0.0, SVG Export Plug-In  -->
<!DOCTYPE svg PUBLIC "-//W3C//DTD SVG 1.1//EN" "http://www.w3.org/Graphics/SVG/1.1/DTD/svg11.dtd" [
	<!ENTITY ns_flows "http://ns.adobe.com/Flows/1.0/">
]>
<svg version="1.1"
	 xmlns="http://www.w3.org/2000/svg" xmlns:xlink="http://www.w3.org/1999/xlink" xmlns:a="http://ns.adobe.com/AdobeSVGViewerExtensions/3.0/"
	 x="0px" y="0px" width="70px" height="70px" viewBox="0 0 70 70" overflow="visible" enable-background="new 0 0 70 70"
	 xml:space="preserve">
<defs>
</defs>
<path id="Chrome_1_" fill="#FFFFFF" d="M17.7,30.5l-10-17.4C14,5.2,23.9,0,35,0C47.8,0,59,6.9,65.1,17.2H36.5c-0.5,0-1-0.1-1.6-0.1
	C26.7,17.1,19.7,22.8,17.7,30.5 M47.5,22.2h20.1c1.6,4,2.4,8.3,2.4,12.8c0,19.2-15.5,34.8-34.6,35l14.3-24.8c2-2.9,3.2-6.4,3.2-10.2
	C52.9,30,50.8,25.5,47.5,22.2 M22.3,35c0-7,5.7-12.7,12.7-12.7c7,0,12.8,5.7,12.8,12.7c0,7-5.7,12.7-12.8,12.7
	C28,47.7,22.3,42,22.3,35 M39.8,52.3l-10,17.4C12.9,67.1,0,52.6,0,35c0-6.3,1.6-12.1,4.5-17.2l14.3,24.8c2.9,6.1,9,10.3,16.2,10.3
	C36.6,52.9,38.2,52.7,39.8,52.3"/>
</svg>
