<?xml version="1.0" encoding="utf-8"?>
<!-- Generator: Adobe Illustrator 15.0.0, SVG Export Plug-In  -->
<!DOCTYPE svg PUBLIC "-//W3C//DTD SVG 1.1//EN" "http://www.w3.org/Graphics/SVG/1.1/DTD/svg11.dtd" [
	<!ENTITY ns_flows "http://ns.adobe.com/Flows/1.0/">
]>
<svg version="1.1"
	 xmlns="http://www.w3.org/2000/svg" xmlns:xlink="http://www.w3.org/1999/xlink" xmlns:a="http://ns.adobe.com/AdobeSVGViewerExtensions/3.0/"
	 x="0px" y="0px" width="70px" height="63px" viewBox="0 0 70 63" overflow="visible" enable-background="new 0 0 70 63"
	 xml:space="preserve">
<defs>
</defs>
<path id="Firefox_1_" fill="#FFFFFF" d="M69.9,18.9l-0.8,5.2c0,0-1.1-9.6-2.6-13.2c-2.2-5.5-3.1-5.5-3.2-5.5
	c1.5,3.7,1.2,5.7,1.2,5.7s-2.6-7-9.4-9.3C47.6-0.6,43.5,0,43,0.2h-0.2c0.1,0,0.1,0,0.2,0h0c0,0,8.4,1.5,9.8,3.5c0,0-3.5,0-7.1,1
	c-0.2,0,12.9,1.6,15.6,14.8c0,0-1.5-3-3.2-3.5c1.2,3.6,0.9,10.3-0.2,13.7c-0.2,0.4-0.3-1.9-2.5-2.8c0.7,5-0.1,13-3.6,15.2
	c-0.3,0.2,2.2-7.9,0.5-4.8c-9.7,14.9-21.3,6.9-26.4,3.3c2.6,0.6,7.7-0.1,9.9-1.7l0,0c2.4-1.7,3.9-2.9,5.1-2.6c1.3,0.3,2.1-1,1.2-2.1
	c-1-1.2-3.4-2.8-6.7-1.9c-2.3,0.6-5.2,3.2-9.6,0.6c-3.4-2-3.7-3.7-3.7-4.8c0.1-0.4,0.2-0.8,0.3-1.1c0.4-1.1,1.6-1.4,2.2-1.6
	c1.1,0.2,2.1,0.5,3.1,1c0-0.3,0-0.8,0-1.3c0.1-0.2,0.1-0.8-0.1-1.5c-0.1-0.7-0.3-1.4-0.5-2.1c0,0,0,0,0,0c0,0,0,0,0,0c0,0,0,0,0,0
	c0-0.3,0.8-0.9,1.7-1.6c0.9-0.6,1.8-1.2,2.6-1.7c0.7-0.4,1.2-0.8,1.3-0.8c0,0,0.1-0.1,0.2-0.1c0,0,0,0,0,0c0,0,0,0,0,0
	c0.4-0.3,0.9-0.8,1-2c0,0,0-0.1,0-0.1c0,0,0-0.1,0-0.1v-0.1c0,0,0-0.1,0-0.1v0c0-0.1,0-0.2,0-0.4c0-0.1,0-0.1,0-0.2v0v0c0,0,0,0,0,0
	c0,0,0,0,0,0h0c-0.1-0.3-0.6-0.4-2.4-0.4h0c-0.8,0-1.8,0-3.1,0c-2.3,0-3.5-2.2-3.9-3.1c0.5-3,2.1-5.2,4.7-6.7c0.1,0,0.1,0,0-0.1
	c0.5-0.3-6.2,0-9.2,3.9C17.4,6.9,15,7,13,7.5c-0.4,0-0.9,0-1.5-0.2c-1.4-1.2-3.3-3.5-3.4-6.2c0,0,0,0,0,0V1c0,0-4.1,3.2-3.5,11.9
	v0.4c-1.1,1.5-1.7,2.8-1.7,3.1c-1,2-2,5.1-2.8,9.7c0,0,0.6-1.8,1.7-3.9c-0.8,2.6-1.5,6.6-1.1,12.7c0,0,0.1-1.3,0.5-3.3
	c0.3,3.8,1.5,8.4,4.7,13.9C11.8,56,21.2,61.3,31.5,62.1c1.9,0.1,3.7,0.1,5.6,0c0.1,0,0.3,0,0.5,0c2.1-0.2,4.2-0.5,6.4-1
	C73.1,54,69.9,18.9,69.9,18.9"/>
</svg>
