<?xml version="1.0" encoding="utf-8"?>
<!-- Generator: Adobe Illustrator 15.0.0, SVG Export Plug-In  -->
<!DOCTYPE svg PUBLIC "-//W3C//DTD SVG 1.1//EN" "http://www.w3.org/Graphics/SVG/1.1/DTD/svg11.dtd" [
	<!ENTITY ns_flows "http://ns.adobe.com/Flows/1.0/">
]>
<svg version="1.1"
	 xmlns="http://www.w3.org/2000/svg" xmlns:xlink="http://www.w3.org/1999/xlink" xmlns:a="http://ns.adobe.com/AdobeSVGViewerExtensions/3.0/"
	 x="0px" y="0px" width="70px" height="68px" viewBox="0 0 70 68" overflow="visible" enable-background="new 0 0 70 68"
	 xml:space="preserve">
<defs>
</defs>
<path id="IE_1_" fill="#FFFFFF" d="M52.8,39.3h17c0.1-1.2,0.2-2.4,0.2-3.6c0-5.7-1.5-11.2-4.2-15.8c2.8-7.4,2.7-13.8-1.1-17.5
	c-3.6-3.6-13.1-3-23.9,1.8C40,4,39.2,4,38.4,4C23.6,4,11.1,14.2,7.7,27.9c4.7-5.9,9.6-10.3,16.1-13.4c-0.6,0.6-4,4-4.7,4.6
	C1.9,36.3-3.6,58.9,2.3,64.7c4.5,4.5,12.5,3.7,21.8-0.9c4.3,2.2,9.2,3.4,14.3,3.4c13.9,0,25.7-8.9,29.9-21.4H51.2
	c-2.3,4.3-6.9,7.3-12.2,7.3c-5.3,0-9.9-3-12.3-7.3c-1.1-2-1.7-4.2-1.7-6.6v0H52.8z M25.1,30.9c0.4-7,6.2-12.6,13.3-12.6
	c7.1,0,12.9,5.6,13.3,12.6H25.1z M64.5,5.8c2.4,2.5,2.4,6.9,0.3,12.5c-3.5-5.4-8.7-9.6-14.8-12.1C56.6,3.5,61.9,3.1,64.5,5.8
	 M6.7,63.6c-3.1-3.1-2.1-9.6,1.8-17.3C11,53.2,15.8,59,22,62.8C15.2,65.9,9.5,66.4,6.7,63.6"/>
</svg>
