<?xml version="1.0" encoding="utf-8"?>
<!-- Generator: Adobe Illustrator 15.0.0, SVG Export Plug-In  -->
<!DOCTYPE svg PUBLIC "-//W3C//DTD SVG 1.1//EN" "http://www.w3.org/Graphics/SVG/1.1/DTD/svg11.dtd" [
	<!ENTITY ns_flows "http://ns.adobe.com/Flows/1.0/">
]>
<svg version="1.1"
	 xmlns="http://www.w3.org/2000/svg" xmlns:xlink="http://www.w3.org/1999/xlink" xmlns:a="http://ns.adobe.com/AdobeSVGViewerExtensions/3.0/"
	 x="0px" y="0px" width="57px" height="71px" viewBox="0 0 57 71" overflow="visible" enable-background="new 0 0 57 71"
	 xml:space="preserve">
<defs>
</defs>
<path id="Apple_2_" fill="#FFFFFF" d="M32,5.3c2.5-3,6.8-5.2,10.3-5.3c0.4,4.1-1.2,8.2-3.6,11.2c-2.4,3-6.4,5.3-10.3,5
	C27.8,12.1,29.7,7.9,32,5.3z M51.9,61.3c-2.9,4.3-5.9,8.5-10.7,8.6c-4.7,0.1-6.2-2.8-11.5-2.8c-5.3,0-7,2.7-11.4,2.9
	c-4.6,0.2-8.1-4.6-11-8.9c-6-8.7-10.6-24.6-4.4-35.3c3-5.3,8.5-8.7,14.4-8.8c4.5-0.1,8.8,3,11.5,3c2.8,0,7.9-3.8,13.3-3.2
	c2.3,0.1,8.7,0.9,12.7,6.9c-0.3,0.2-7.6,4.5-7.5,13.3c0.1,10.6,9.2,14.1,9.4,14.2C56.7,51.6,55.3,56.4,51.9,61.3z"/>
</svg>
