<?xml version="1.0" encoding="utf-8"?>
<!-- Generator: Adobe Illustrator 15.0.0, SVG Export Plug-In  -->
<!DOCTYPE svg PUBLIC "-//W3C//DTD SVG 1.1//EN" "http://www.w3.org/Graphics/SVG/1.1/DTD/svg11.dtd" [
	<!ENTITY ns_flows "http://ns.adobe.com/Flows/1.0/">
]>
<svg version="1.1"
	 xmlns="http://www.w3.org/2000/svg" xmlns:xlink="http://www.w3.org/1999/xlink" xmlns:a="http://ns.adobe.com/AdobeSVGViewerExtensions/3.0/"
	 x="0px" y="0px" width="66px" height="70px" viewBox="0 0 66 70" overflow="visible" enable-background="new 0 0 66 70"
	 xml:space="preserve">
<defs>
</defs>
<path id="Safari_1_" fill="#FFFFFF" d="M32.8,4.4c-1.6,0-3.2,0.1-4.8,0.4c0,0,0-0.1-0.1-0.2C28.8,3.9,29.2,3,29,2
	c-0.2-1.2-1.5-2-3.1-2c-0.4,0-0.7,0-1.1,0.1c-2.1,0.4-3.4,1.9-3.1,3.4c0.2,0.9,1,1.6,2.1,1.9c0,0.1,0,0.1,0,0.2
	C10,9.6,0,22.2,0,37.2C0,55.3,14.7,70,32.8,70c18.1,0,32.8-14.7,32.8-32.8C65.6,19.1,50.9,4.4,32.8,4.4 M22.7,3.4
	c-0.2-0.9,0.9-1.9,2.3-2.2c0.3-0.1,0.6-0.1,0.8-0.1c1.1,0,1.9,0.5,2.1,1.2c0.1,0.5-0.2,1.1-0.8,1.5c-0.5-0.3-1.1-0.5-1.7-0.4
	c-0.6,0.1-1.1,0.5-1.4,1C23.4,4.2,22.8,3.8,22.7,3.4 M50.4,54.8c-3,3-6.6,5.1-10.6,6.3l-2.9-4.7l-0.7,5.5c-1.1,0.1-2.2,0.2-3.4,0.2
	c-6.6,0-12.9-2.6-17.6-7.3c-3-3-5.1-6.6-6.3-10.6l4.7-2.9l-5.5-0.7c-0.1-1.1-0.2-2.2-0.2-3.3c0-6.6,2.6-12.9,7.3-17.6
	c3-3,6.7-5.1,10.6-6.3l2.9,4.7l0.7-5.5c1.1-0.2,2.2-0.2,3.3-0.2c6.6,0,12.9,2.6,17.6,7.3c3,3,5.2,6.7,6.3,10.6L52,33.1l5.5,0.7
	c0.2,1.1,0.3,2.2,0.3,3.3C57.7,43.8,55.1,50.1,50.4,54.8 M49.8,20.2L36.4,30.4c-1-0.5-2.1-0.8-3.3-0.9l-3.5-7.3l-0.2,8.1
	c-0.9,0.4-1.7,1.1-2.4,1.9l-4.3-1.5l3.2,3.3c-0.4,0.9-0.7,1.9-0.7,2.9l-7.3,3.5l8.1,0.2c0,0.1,0.1,0.1,0.1,0.2L15.8,54.2L29.3,44
	c1,0.5,2.1,0.8,3.2,0.9l3.5,7.3l0.2-8.1c0.9-0.4,1.7-1.1,2.4-1.8l4.3,1.5l-3.1-3.3c0.4-0.9,0.7-1.9,0.7-2.9l7.3-3.5l-8.1-0.2
	c0,0-0.1-0.1-0.1-0.1L49.8,20.2z M32.8,30.4v0.2V30.4z M31.4,30.8c0.5-0.1,0.9-0.1,1.4-0.1c0.3,0,0.6,0,0.9,0.1h0h0
	c0.6,0.1,1.2,0.2,1.7,0.5l-4.9,3.7l-3.7,4.9c-0.2-0.4-0.3-0.8-0.4-1.2C25.6,35,27.9,31.5,31.4,30.8 M36.2,42.8L36.2,42.8
	c-0.6,0.4-1.3,0.7-2.1,0.8c-0.5,0.1-0.9,0.1-1.4,0.1c-0.3,0-0.5,0-0.8,0h0c-0.6-0.1-1.2-0.2-1.7-0.5l4.9-3.7l3.7-4.9
	c0.1,0.4,0.3,0.8,0.4,1.2C39.8,38.6,38.5,41.4,36.2,42.8"/>
</svg>
